<?xml version="1.0" encoding="utf-8"?>
<!-- Generator: Adobe Illustrator 19.0.0, SVG Export Plug-In . SVG Version: 6.00 Build 0)  -->
<svg version="1.1" id="Layer_1" xmlns="http://www.w3.org/2000/svg" xmlns:xlink="http://www.w3.org/1999/xlink" x="0px" y="0px"
	 viewBox="0 0 400 400" style="enable-background:new 0 0 400 400;" xml:space="preserve">
<style type="text/css">
	.st0{fill:#F6EC13;}
	.st1{fill:#FFFFFF;}
</style>
<circle id="XMLID_5_" class="st0" cx="200.5" cy="200.5" r="198.5"/>
<g id="Clocks_1_">
	<path id="Clocks" class="st1" d="M368.7,168.8c-3.6-4.3-8.7-6.8-13.9-6.8h-7.9v-6.4c0-11.4-9.9-20.7-22.1-20.7h-10.4v-11.7
		c0-5.5-2.4-10.9-6.5-14.8c-8.2-7.7-22.3-7.7-30.4,0c-4.1,3.9-6.5,9.3-6.5,14.8v55.1H130v-55.1c0-5.5-2.4-10.9-6.5-14.8
		c-8.2-7.7-22.3-7.7-30.4,0c-4.1,3.9-6.5,9.3-6.5,14.8v11.7H75c-5.5,0-10.7,2-14.6,5.6c-4,3.7-6.3,8.8-6.3,14v7.5h-7.8
		c-5.3,0-10.4,2.5-14,6.8c-3.4,4.1-5.3,9.5-5.3,15.2v31.8c0,5.7,1.9,11.1,5.3,15.2c3.6,4.3,8.7,6.8,14,6.8h7.8v7.5
		c0,5.2,2.3,10.3,6.3,14c3.9,3.6,9.1,5.6,14.6,5.6h11.7v11.7c0,5.5,2.4,10.9,6.5,14.8c4.1,3.9,9.5,6,15.2,6s11.1-2.1,15.2-6
		c4.1-3.9,6.5-9.3,6.5-14.8v-55.1h141v55.1c0,5.5,2.4,10.9,6.5,14.8c4.1,3.9,9.5,6,15.2,6c5.7,0,11.1-2.1,15.2-6
		c4.1-3.9,6.5-9.3,6.5-14.8V265h10.4c12.2,0,22.1-9.3,22.1-20.7v-6.4h7.9c5.2,0,10.3-2.5,13.9-6.8c3.4-4.1,5.3-9.5,5.3-15.2v-31.9
		C374,178.3,372.1,172.9,368.7,168.8z M46.3,227c-2.1,0-4.1-1-5.6-2.9c-1.8-2.1-2.8-5.2-2.8-8.3V184c0-3.1,1-6.2,2.8-8.3
		c1.6-1.9,3.6-2.9,5.6-2.9h7.8V227L46.3,227L46.3,227z M75,254.1c-2.7,0-5.4-1-7.3-2.7c-1.8-1.6-2.8-3.8-2.8-6v-12.9v-65.1v-12.9
		c0-2.2,1-4.4,2.8-6c1.9-1.7,4.5-2.7,7.3-2.7h11.7v108.4L75,254.1L75,254.1z M119.2,276.7c0,2.6-1.1,5.1-3.1,6.9
		c-4.1,3.8-11.5,3.8-15.6,0c-2-1.9-3.1-4.3-3.1-6.9v-17.2V140.3v-17.2c0-2.6,1.1-5.1,3.1-6.9c2-1.9,4.9-3,7.8-3s5.7,1.1,7.8,3
		c2,1.9,3.1,4.3,3.1,6.9v60.5v32.5V276.7z M130,210.7v-21.7h141v21.7H130z M303.5,276.7c0,2.6-1.1,5.1-3.1,6.9
		c-4.1,3.8-11.5,3.8-15.6,0c-2-1.9-3.1-4.3-3.1-6.9v-60.5v-32.5v-60.5c0-2.6,1.1-5.1,3.1-6.9c2-1.9,4.9-3,7.8-3c2.9,0,5.7,1.1,7.8,3
		c2,1.9,3.1,4.3,3.1,6.9v17.2v119.3V276.7z M336,244.2c0,5.5-5.1,9.9-11.3,9.9h-10.4V145.7h10.4c6.2,0,11.3,4.4,11.3,9.9v11.8v65.1
		V244.2z M363.2,215.9c0,3.1-1,6.1-2.8,8.2c-1.6,1.9-3.6,2.9-5.6,2.9h-7.9v-54.2h7.9c2,0,4,1,5.6,2.9c1.8,2.1,2.8,5.1,2.8,8.2V215.9
		z"/>
</g>
</svg>
