<?xml version="1.0" encoding="utf-8"?>
<!-- Generator: Adobe Illustrator 19.0.0, SVG Export Plug-In . SVG Version: 6.00 Build 0)  -->
<svg version="1.1" id="Layer_1" xmlns="http://www.w3.org/2000/svg" xmlns:xlink="http://www.w3.org/1999/xlink" x="0px" y="0px"
	 viewBox="0 0 400 400" style="enable-background:new 0 0 400 400;" xml:space="preserve">
<style type="text/css">
	.st0{fill:#F6EC13;}
	.st1{fill:#FFFFFF;}
</style>
<circle id="XMLID_5_" class="st0" cx="200.5" cy="200.5" r="198.5"/>
<g id="XMLID_7_">
	<path id="XMLID_8_" class="st1" d="M167.4,399.2l51.3-199.8l147.3,36.5c-2.5-74.3-53.6-141-129.4-159.8c-14.1-3.5-28.2-5.1-42-5
		c-60.7,0.4-116.9,33.4-147,86l151.2,37.4l-51.2,199.6L167.4,399.2z M230.7,103.4c31.5,7.2,38.5,58.4,38.7,87.4l-117.8-29.1
		C166.9,138.9,201.9,97,230.7,103.4z M342,208.8l-52.1-12.9c0.2-15.9-1.1-54.9-17.1-82.9C307.7,134,333,168.7,342,208.8z
		 M192.6,91.6c-32.2,18.2-57.3,57.3-61.9,64.9l-49.1-12.1C109.1,112.1,149.5,92.5,192.6,91.6z"/>
</g>
</svg>
