<?xml version="1.0" encoding="utf-8"?>
<!-- Generator: Adobe Illustrator 19.0.0, SVG Export Plug-In . SVG Version: 6.00 Build 0)  -->
<svg version="1.1" id="Layer_1" xmlns="http://www.w3.org/2000/svg" xmlns:xlink="http://www.w3.org/1999/xlink" x="0px" y="0px"
	 viewBox="0 0 400 400" style="enable-background:new 0 0 400 400;" xml:space="preserve">
<style type="text/css">
	.st0{fill:#F6EC13;}
	.st1{fill:#FFFFFF;}
</style>
<circle id="XMLID_5_" class="st0" cx="200.5" cy="200.5" r="198.5"/>
<g id="XMLID_11_">
	<path id="XMLID_12_" class="st1" d="M142.6,239h132.2c15,0,27.2-12.2,27.2-27.2v-55.6c0,0,0-0.1,0-0.2c0-0.1,0-0.2,0-0.4
		c0-0.1,0-0.2,0-0.3c0-0.1,0-0.2,0-0.3c0-0.1,0-0.2,0-0.3c0-0.1,0-0.2-0.1-0.3c0-0.1,0-0.2-0.1-0.3c0-0.1,0-0.2-0.1-0.3
		c0-0.1-0.1-0.2-0.1-0.3c0-0.1-0.1-0.2-0.1-0.2c0-0.1-0.1-0.2-0.1-0.3c0-0.1-0.1-0.1-0.1-0.2s-0.1-0.2-0.2-0.3
		c0-0.1-0.1-0.1-0.2-0.2c0-0.1-0.1-0.1-0.2-0.2c0-0.1-0.1-0.1-0.2-0.2s-0.1-0.1-0.2-0.2c-0.1-0.1-0.1-0.1-0.2-0.2
		c-0.1,0-0.1-0.1-0.2-0.2c-0.1,0-0.2-0.1-0.3-0.2c-0.1,0-0.1-0.1-0.2-0.1s-0.2-0.1-0.3-0.2c-0.1,0-0.2-0.1-0.3-0.1
		c-0.1,0-0.2-0.1-0.3-0.1c-0.1,0-0.2-0.1-0.3-0.1c-0.1,0-0.2,0-0.3-0.1s-0.2-0.1-0.3-0.1s-0.2,0-0.2,0c-0.1,0-0.2,0-0.4,0
		c0,0-0.1,0-0.2,0l-167.5-23.1v-23.4c0-0.2,0-0.5,0-0.7c0,0,0-0.1,0-0.2c0-0.1,0-0.3,0-0.4c0-0.1,0-0.2-0.1-0.4c0-0.1,0-0.1,0-0.2
		c0-0.1-0.1-0.3-0.1-0.4c0,0,0-0.1,0-0.2c0-0.1-0.1-0.2-0.2-0.4c0,0,0-0.1-0.1-0.2c0-0.1-0.1-0.2-0.2-0.3c0-0.1-0.1-0.1-0.1-0.2
		c0-0.1-0.1-0.1-0.1-0.2c0-0.1-0.1-0.2-0.2-0.3c0,0-0.1-0.1-0.1-0.1c-0.1-0.1-0.2-0.2-0.3-0.3c0,0-0.1-0.1-0.1-0.1
		c-0.1-0.1-0.2-0.2-0.3-0.3c0,0-0.1-0.1-0.2-0.1c-0.1-0.1-0.2-0.1-0.3-0.2c-0.1-0.1-0.3-0.2-0.4-0.2c0,0-0.1,0-0.1-0.1
		c-0.2-0.1-0.4-0.2-0.6-0.3L88.4,81.6c-3.4-1.4-7.3,0.1-8.7,3.5c-1.4,3.4,0.1,7.3,3.5,8.7l32.2,13.6v30.2v4.8v36.7v32.8v41.4
		c0,13.8,10.4,25.2,23.7,27c-2.4,4-3.8,8.8-3.8,13.8c0,14.8,12.1,26.9,26.9,26.9c14.8,0,26.9-12.1,26.9-26.9c0-4.9-1.3-9.6-3.7-13.6
		h59.8c-2.4,4-3.7,8.6-3.7,13.6c0,14.8,12.1,26.9,26.9,26.9s26.9-12.1,26.9-26.9c0-14.8-12.1-26.9-26.9-26.9H142.6
		c-7.7,0-13.9-6.3-13.9-13.9v-18C132.8,237.6,137.5,239,142.6,239z M175.8,294c0,7.5-6.1,13.6-13.6,13.6s-13.6-6.1-13.6-13.6
		s6.1-13.6,13.6-13.6S175.8,286.5,175.8,294z M281.9,294c0,7.5-6.1,13.6-13.6,13.6s-13.6-6.1-13.6-13.6s6.1-13.6,13.6-13.6
		S281.9,286.5,281.9,294z M274.8,225.7H142.6c-7.7,0-13.9-6.3-13.9-13.9V179v-36.7v-2.5l160,22v49.8
		C288.7,219.5,282.4,225.7,274.8,225.7z"/>
</g>
</svg>
