<?xml version="1.0" encoding="utf-8"?>
<!-- Generator: Adobe Illustrator 19.0.0, SVG Export Plug-In . SVG Version: 6.00 Build 0)  -->
<svg version="1.1" id="Layer_1" xmlns="http://www.w3.org/2000/svg" xmlns:xlink="http://www.w3.org/1999/xlink" x="0px" y="0px"
	 viewBox="0 0 400 400" style="enable-background:new 0 0 400 400;" xml:space="preserve">
<style type="text/css">
	.st0{fill:#F6EC13;}
	.st1{fill:#FFFFFF;}
</style>
<circle id="XMLID_5_" class="st0" cx="200.5" cy="200.5" r="198.5"/>
<g id="XMLID_16_">
	<path id="XMLID_22_" class="st1" d="M383.3,282.9h-19.2c-7.4,0-24.1-6.5-43.6-14.1c-8.4-3.3-17.5-6.8-27.1-10.3v-98.7
		c7.4-2.5,12.8-9.5,12.8-17.8v-4.4c10,3.3,19.7,11.2,20,30c0,3.3,2.7,5.9,6,5.9c0,0,0,0,0.1,0c3.3,0,6-2.8,5.9-6.1
		c-0.3-22.4-11.5-36.9-31.9-42.1v-0.8c7.5-3,15.7-4.3,24-3.6c14.2,1.1,26.9,7.7,35.7,18.5c1.2,1.5,2.9,2.2,4.6,2.2
		c1.3,0,2.7-0.4,3.8-1.3c2.6-2.1,2.9-5.9,0.9-8.4c-10.9-13.4-26.5-21.5-44-22.8c-11.7-0.9-23.4,1.4-33.6,6.3
		c2.8-5,6.9-9.7,11.9-13.3c6.6-4.8,20.6-11.9,40-5.5c3.1,1,6.5-0.7,7.6-3.8s-0.7-6.5-3.8-7.6c-18.1-6-36.2-3.4-50.8,7.2
		c-0.6,0.4-1.2,0.9-1.8,1.4c4.8-8.4,11.8-14.3,20.1-16.2c3.2-0.7,5.2-4,4.5-7.2c-0.7-3.2-3.9-5.2-7.2-4.5
		c-13.4,3.1-24.3,13.3-30.6,27.5c-6.3-14.2-17.2-24.4-30.6-27.5c-3.2-0.7-6.4,1.3-7.2,4.5c-0.7,3.2,1.3,6.4,4.5,7.2
		c8.3,1.9,15.3,7.8,20.1,16.2c-0.6-0.5-1.2-0.9-1.8-1.4c-14.6-10.6-32.7-13.1-50.8-7.2c-3.1,1-4.8,4.4-3.8,7.6
		c1,3.1,4.4,4.8,7.6,3.8c19.4-6.4,33.4,0.7,40,5.5c5,3.6,9.1,8.3,11.9,13.3c-10.2-5-21.9-7.3-33.6-6.3c-17.5,1.4-33.1,9.5-44,22.8
		c-2.1,2.6-1.7,6.3,0.9,8.4c1.1,0.9,2.5,1.3,3.8,1.3c1.7,0,3.5-0.8,4.6-2.2c8.8-10.8,21.5-17.4,35.7-18.5c8.3-0.6,16.5,0.6,24,3.6
		v0.8c-20.5,5.2-31.7,19.7-31.9,42.1c0,3.3,2.6,6,5.9,6.1c0,0,0,0,0.1,0c3.3,0,5.9-2.6,6-5.9c0.1-6.4,0.3-23.3,20-29.8v4.2
		c0,8.3,5.4,15.3,12.8,17.8v94.5c-25.3-8.7-52.8-16-77.1-16s-51.8,7.3-77.1,16v-120c7.4-2.5,12.8-9.5,12.8-17.8V112
		c10,3.3,19.7,11.2,20,30c0,3.3,2.7,5.9,6,5.9c0,0,0,0,0.1,0c3.3,0,6-2.8,5.9-6.1c-0.3-22.4-11.5-36.9-31.9-42.1v-0.8
		c7.5-3,15.7-4.3,24-3.6c14.2,1.1,26.9,7.7,35.7,18.5c1.2,1.5,2.9,2.2,4.6,2.2c1.3,0,2.7-0.4,3.8-1.3c2.6-2.1,2.9-5.9,0.9-8.4
		c-10.9-13.4-26.5-21.5-44-22.8c-11.7-0.9-23.4,1.4-33.6,6.3c2.8-5,6.9-9.7,11.9-13.3c6.6-4.8,20.6-11.9,40-5.5
		c3.1,1,6.5-0.7,7.6-3.8c1-3.1-0.7-6.5-3.8-7.6c-18.1-6-36.2-3.4-50.8,7.2c-0.6,0.4-1.2,0.9-1.8,1.4c4.8-8.4,11.8-14.3,20.1-16.2
		c3.2-0.7,5.2-4,4.5-7.2c-0.7-3.2-3.9-5.2-7.2-4.5c-13.4,3.1-24.3,13.3-30.6,27.5c-6.3-14.2-17.2-24.4-30.6-27.5
		c-3.2-0.7-6.4,1.3-7.2,4.5c-0.7,3.2,1.3,6.4,4.5,7.2c9.5,2.2,17.3,9.6,22.1,20c-1.3-1.1-2.6-2.2-4-3.2
		c-16.9-12.2-37.6-15.5-56.9-9.2c-3.1,1-4.8,4.4-3.8,7.6c1,3.1,4.4,4.8,7.6,3.8c15.6-5.2,32.5-2.4,46.2,7.5c4.3,3.1,8,6.8,10.7,10.6
		c-9.9-4.5-21-6.5-32.2-5.7c-17.5,1.4-33.1,9.5-44,22.8c-2.1,2.6-1.7,6.3,0.9,8.4c1.1,0.9,2.5,1.3,3.8,1.3c1.7,0,3.5-0.8,4.6-2.2
		c8.8-10.8,21.5-17.4,35.7-18.5c8.3-0.6,16.5,0.6,24,3.6v0.8c-20.5,5.2-31.7,19.7-31.9,42.1c0,3.3,2.6,6,5.9,6.1c0,0,0,0,0.1,0
		c3.3,0,5.9-2.6,6-5.9c0.1-6.4,0.3-23.3,20-29.8v4.2c0,8.3,5.4,15.3,12.8,17.8v124.3c-9.6,3.5-18.8,7.1-27.1,10.3
		c-19.4,7.6-36.2,14.1-43.6,14.1H25.5c-3.3,0-6,2.7-6,6c0,3.3,2.7,6,6,6h357.8c3.3,0,6-2.7,6-6C389.3,285.6,386.6,282.9,383.3,282.9
		z M280.7,135.4c2.1-0.2,4.4-0.3,6.8-0.3c1.7,0,4.1,0,6.8,0.2v6.6c0,3.7-3,6.8-6.8,6.8s-6.8-3-6.8-6.8V135.4z M114.5,109.9
		c2.1-0.2,4.4-0.3,6.8-0.3c1.7,0,4.1,0,6.8,0.2v6.6c0,3.7-3,6.8-6.8,6.8c-3.7,0-6.8-3-6.8-6.8C114.5,116.4,114.5,109.9,114.5,109.9z
		 M85,282.9c2.4-0.9,5-1.9,7.6-3c32.2-12.6,76.4-29.8,111.8-29.8S284,267.4,316.2,280c2.6,1,5.1,2,7.6,3H85L85,282.9z"/>
	<path id="XMLID_10_" class="st1" d="M268.3,308.5h-115c-3.3,0-6,2.7-6,6c0,3.3,2.7,6,6,6h115c3.3,0,6-2.7,6-6
		C274.3,311.1,271.6,308.5,268.3,308.5z"/>
	<path id="XMLID_9_" class="st1" d="M127.7,308.5H76.6c-3.3,0-6,2.7-6,6c0,3.3,2.7,6,6,6h51.1c3.3,0,6-2.7,6-6
		C133.7,311.1,131,308.5,127.7,308.5z"/>
	<path id="XMLID_8_" class="st1" d="M306.6,308.5h-12.8c-3.3,0-6,2.7-6,6c0,3.3,2.7,6,6,6h12.8c3.3,0,6-2.7,6-6
		C312.6,311.1,309.9,308.5,306.6,308.5z"/>
	<path id="XMLID_7_" class="st1" d="M255.5,334h-63.9c-3.3,0-6,2.7-6,6c0,3.3,2.7,6,6,6h63.9c3.3,0,6-2.7,6-6
		C261.5,336.7,258.8,334,255.5,334z"/>
	<path id="XMLID_6_" class="st1" d="M166.1,334h-12.8c-3.3,0-6,2.7-6,6c0,3.3,2.7,6,6,6h12.8c3.3,0,6-2.7,6-6
		C172.1,336.7,169.4,334,166.1,334z"/>
</g>
</svg>
