<?xml version="1.0" encoding="utf-8"?>
<!-- Generator: Adobe Illustrator 19.0.0, SVG Export Plug-In . SVG Version: 6.00 Build 0)  -->
<svg version="1.1" id="Layer_1" xmlns="http://www.w3.org/2000/svg" xmlns:xlink="http://www.w3.org/1999/xlink" x="0px" y="0px"
	 viewBox="0 0 400 400" style="enable-background:new 0 0 400 400;" xml:space="preserve">
<style type="text/css">
	.st0{fill:#FFFFFF;stroke:#F4EB14;stroke-width:10;stroke-miterlimit:10;}
	.st1{fill:#F4EB14;}
</style>
<circle id="XMLID_5_" class="st0" cx="200.5" cy="200.5" r="198.5"/>
<g id="XMLID_10_">
	<g id="XMLID_6_">
		<g id="XMLID_28_">
			<path id="XMLID_16_" class="st1" d="M58.3,101.7c15.6,11.8,31.2,23.7,46.8,35.5c25,19,50.1,38,75.1,56.9
				c5.7,4.3,11.4,8.7,17.2,13c6.2,4.7,12.1-5.7,6.1-10.4c-15.6-11.8-31.2-23.7-46.8-35.5c-25-19-50.1-38-75.1-56.9
				c-5.7-4.3-11.4-8.7-17.2-13C58.2,86.7,52.2,97.1,58.3,101.7L58.3,101.7z"/>
		</g>
	</g>
	<g id="XMLID_9_">
		<g id="XMLID_36_">
			<path id="XMLID_15_" class="st1" d="M336.4,91.4c-15.6,11.8-31.2,23.7-46.8,35.5c-25,19-50.1,38-75.1,56.9
				c-5.7,4.3-11.4,8.7-17.2,13c-6.1,4.6-0.1,15,6.1,10.4c15.6-11.8,31.2-23.7,46.8-35.5c25-19,50.1-38,75.1-56.9
				c5.7-4.3,11.4-8.7,17.2-13C348.5,97.1,342.5,86.7,336.4,91.4L336.4,91.4z"/>
		</g>
	</g>
</g>
<g id="XMLID_24_">
	<g id="XMLID_47_">
		<g id="XMLID_32_">
			<path id="XMLID_8_" class="st1" d="M58.3,190.7c15.6,11.8,31.2,23.7,46.8,35.5c25,19,50.1,38,75.1,56.9c5.7,4.3,11.4,8.7,17.2,13
				c6.2,4.7,12.1-5.7,6.1-10.4c-15.6-11.8-31.2-23.7-46.8-35.5c-25-19-50.1-38-75.1-56.9c-5.7-4.3-11.4-8.7-17.2-13
				C58.2,175.7,52.2,186.1,58.3,190.7L58.3,190.7z"/>
		</g>
	</g>
	<g id="XMLID_31_">
		<g id="XMLID_30_">
			<path id="XMLID_7_" class="st1" d="M336.4,180.4c-15.6,11.8-31.2,23.7-46.8,35.5c-25,19-50.1,38-75.1,56.9
				c-5.7,4.3-11.4,8.7-17.2,13c-6.1,4.6-0.1,15,6.1,10.4c15.6-11.8,31.2-23.7,46.8-35.5c25-19,50.1-38,75.1-56.9
				c5.7-4.3,11.4-8.7,17.2-13C348.5,186.1,342.5,175.7,336.4,180.4L336.4,180.4z"/>
		</g>
	</g>
</g>
</svg>
