<?xml version="1.0" encoding="utf-8"?>
<!-- Generator: Adobe Illustrator 19.0.0, SVG Export Plug-In . SVG Version: 6.00 Build 0)  -->
<svg version="1.1" id="Layer_1" xmlns="http://www.w3.org/2000/svg" xmlns:xlink="http://www.w3.org/1999/xlink" x="0px" y="0px"
	 viewBox="0 0 400 400" style="enable-background:new 0 0 400 400;" xml:space="preserve">
<style type="text/css">
	.st0{fill:#F6EC13;}
	.st1{fill:#FFFFFF;}
</style>
<circle id="XMLID_5_" class="st0" cx="200.5" cy="200.5" r="198.5"/>
<g>
	<path class="st1" d="M300.2,291.3l-14.3-160.6c-0.3-3.6-3.3-6.3-6.8-6.3h-29.3c-0.4-26.8-22.3-48.5-49.2-48.5s-48.8,21.7-49.2,48.5
		h-29.3c-3.6,0-6.5,2.7-6.8,6.3l-14.3,160.6c0,0.2-0.1,0.4-0.1,0.6c0,18.3,16.8,33.2,37.4,33.2h124.6c20.6,0,37.4-14.9,37.4-33.2
		C300.2,291.7,300.2,291.5,300.2,291.3z M200.5,89.7c19.3,0,35.1,15.5,35.5,34.7H165C165.4,105.2,181.2,89.7,200.5,89.7z
		 M262.8,311.3H138.2c-12.9,0-23.4-8.6-23.6-19.1l13.7-154h23v20.9c0,3.8,3.1,6.9,6.9,6.9c3.8,0,6.9-3.1,6.9-6.9v-20.9h71v20.9
		c0,3.8,3.1,6.9,6.9,6.9c3.8,0,6.9-3.1,6.9-6.9v-20.9h23l13.7,154C286.2,302.7,275.7,311.3,262.8,311.3z"/>
</g>
</svg>
