<?xml version="1.0" encoding="utf-8"?>
<!-- Generator: Adobe Illustrator 19.2.1, SVG Export Plug-In . SVG Version: 6.00 Build 0)  -->
<svg version="1.1" xmlns="http://www.w3.org/2000/svg" xmlns:xlink="http://www.w3.org/1999/xlink" x="0px" y="0px"
	 viewBox="0 0 2048 2048" style="enable-background:new 0 0 2048 2048;" xml:space="preserve">
<style type="text/css">
	.st0{opacity:0.1091;fill:#383435;}
	.st1{fill:none;stroke:#383435;stroke-miterlimit:10;}
	.st2{display:none;}
	.st3{display:inline;}
	.st4{fill:#383435;}
	.st5{fill:#4486C6;stroke:#FFFFFF;stroke-width:16;stroke-miterlimit:10;stroke-opacity:0;}
	.st6{fill:#58A0D7;stroke:#FFFFFF;stroke-width:16;stroke-miterlimit:10;stroke-opacity:0;}
	.st7{fill:#7CCFDA;stroke:#FFFFFF;stroke-width:16;stroke-miterlimit:10;stroke-opacity:0;}
	.st8{fill:#FDB82B;}
</style>
<g id="Layer_2">
	<g id="XMLID_6_">
		<g id="XMLID_48_">
			<g id="XMLID_49_">
				<path id="XMLID_72_" class="st0" d="M137.8,1099.3c0.9-0.1,1.4-0.7,1.3-1.6c-0.5-1.5-1.4-2.7-2.8-3.7c-2.1-1.9-4.4-3.7-6.7-5.4
					c-1.2-1.2-2.6-1.8-4.2-2c-0.9,0.1-1.4,0.7-1.3,1.6c0.5,1.5,1.4,2.7,2.8,3.7c2.1,1.9,4.4,3.7,6.7,5.4
					C134.8,1098.5,136.2,1099.2,137.8,1099.3z"/>
				<path id="XMLID_71_" class="st0" d="M128.6,1092.7c1-0.1,1.4-0.7,1.3-1.7c-0.6-1.6-1.6-2.9-3.1-3.8c-2.3-2-4.7-3.9-7.3-5.7
					c-1.3-1.2-2.8-1.9-4.5-2.1c-1,0.1-1.4,0.7-1.3,1.7c0.6,1.6,1.6,2.9,3.1,3.8c2.3,2,4.7,3.9,7.3,5.7
					C125.4,1091.8,126.9,1092.5,128.6,1092.7z"/>
				<path id="XMLID_70_" class="st0" d="M132.6,1083.6c1.2,0,2.7-1.1,2.7-2.3c0-1-1.9-3.5-3-3.5c-1.2,0-2.7,1.1-2.7,2.3
					C129.6,1081.1,131.5,1083.6,132.6,1083.6z"/>
				<path id="XMLID_69_" class="st0" d="M135.6,1088.6c1.2,0.3,1.7-0.2,1.5-1.4c-0.8-2.3-2.2-4.2-4-5.9c-2.9-3.4-6-6.7-9.2-9.9
					c-1.5-1.9-3.4-3.4-5.6-4.4c-1.2-0.3-1.7,0.2-1.5,1.4c0.8,2.3,2.2,4.2,4,5.9c2.9,3.4,6,6.7,9.2,9.9
					C131.6,1086.1,133.4,1087.6,135.6,1088.6z"/>
				<path id="XMLID_67_" class="st0" d="M140.3,1082.8c0.7-0.2,1.3-0.6,1.7-1.2c0.4-0.6,0.4-1.3,0-2c-0.5-1-1.1-1.8-1.8-2.6
					c-0.5-0.7-1.1-0.9-1.8-0.7c-0.7,0.2-1.3,0.6-1.7,1.2c-0.4,0.6-0.4,1.3,0,2c0.5,1,1.1,1.8,1.8,2.6
					C139,1082.7,139.6,1083,140.3,1082.8z"/>
				<path id="XMLID_64_" class="st0" d="M126.3,1091.9c1.2,0,2.5-1.7,2.2-2.8c-0.3-1.2-2.6-3-3.8-3c-1.2,0-2.5,1.7-2.2,2.8
					C122.8,1090.1,125.1,1091.9,126.3,1091.9z"/>
				<path id="XMLID_60_" class="st0" d="M132,1101.4c1.8,0,3-1.2,1.9-3c-1.1-1.2-2.4-2.2-3.8-3c-1.4-0.9-2.8-1.7-4.4-2.3
					c-1.8,0-3,1.2-1.9,3c1.1,1.2,2.4,2.2,3.8,3C129,1100.1,130.5,1100.9,132,1101.4z"/>
				<path id="XMLID_59_" class="st0" d="M141.7,1088.1c3.8,0,0-5.2-0.6-6.2c-1.9-2.8-4-5.6-6.2-8.3c-1-1.6-2.4-2.9-4.1-3.6
					c-3.8,0,0,5.2,0.6,6.2c1.9,2.8,4,5.6,6.2,8.3C138.6,1086.1,140,1087.4,141.7,1088.1z"/>
				<path id="XMLID_58_" class="st0" d="M128.9,1087.1c1.4,0,2.8-1.1,2.5-2.6c-0.5-1-1.1-1.8-2-2.5c-0.8-0.8-1.6-1.4-2.6-1.9
					c-1.4,0-2.8,1.1-2.5,2.6c0.5,1,1.1,1.8,2,2.5C127,1086.1,127.9,1086.7,128.9,1087.1z"/>
				<path id="XMLID_57_" class="st0" d="M133,1082.3c3.5,0,0.2-4.6-0.4-5.4c-1.7-2.2-3.5-4.3-5.4-6.3c-0.9-1.3-2.1-2.2-3.6-2.6
					c-3.5,0-0.2,4.6,0.4,5.4c1.7,2.2,3.5,4.3,5.4,6.3C130.2,1081,131.5,1081.9,133,1082.3z"/>
				<path id="XMLID_56_" class="st0" d="M140.9,1094c4.1,0-1-5.8-1.4-6.3c-2.3-2.7-4.7-5.4-7.3-7.9c-1.2-1.6-2.7-2.7-4.6-3.4
					c-4.1,0,1,5.8,1.4,6.3c2.3,2.7,4.7,5.4,7.3,7.9C137.5,1092.2,139.1,1093.4,140.9,1094z"/>
				<path id="XMLID_50_" class="st0" d="M127.4,1096.7c1.3,0,2.4-1.8,2-2.9c-0.4-1.3-3.2-3.1-4.5-3.1c-1.3,0-2.4,1.8-2,2.9
					C123.3,1094.9,126.1,1096.7,127.4,1096.7z"/>
			</g>
		</g>
	</g>
	<g id="XMLID_7_">
		<g id="XMLID_40_">
			<path id="XMLID_44_" class="st1" d="M1335.9,1893.9"/>
		</g>
	</g>
	<g id="XMLID_29_" class="st2">
		<g id="XMLID_39_" class="st3">
			<path id="XMLID_45_" class="st4" d="M1359.7,1917.3c7-0.9,46.1-0.4,84.5-0.8c9.6-0.1,19.1-0.2,28.1-0.4c4.6-0.2,8.7-0.5,12.4-0.9
				c7.3-0.8,12.5-2.1,13.5-4.1c1.4-2.7,1.9-7.4-0.8-9.2c-7.1-4.8-10.4,7.9-2.3,5.8c-3,4.8-11,1.3-13-2.7c-3-5.6,2.6-16.1,8.3-18.5
				c5.8-2.5,13.1,1.4,16,6.3c3,4.9,2.2,11.3,6.4,15.6c1.3,1.4,3.6,2.6,4.8,1c2.1-2.7-2.5-10.4-3-13.9c-0.9-7.4,5-15.2,10.6-16.3
				c5.1-1,12.1,1.6,12.5,6.9c0.3,3.8-2.7,8.8-6.3,7.5c3.6-4.9-3.7-6.4-3.8-0.3c0,2.2,1.7,4.2,4.6,5.2c2.7,0.9,9.8,0.1,14.2,1.9
				c3.5,1.4,7.3,3.6,6.4,6.3c-0.5,1.7-3.6,1.9-2.6,3.8c0.8-1,1.7-2,2.9-2.1c4.1,2,9,8.6,11.6,2.8c0.8-1.8-0.4-5.2,0.4-7.2
				c1.2-3.3,4.9-6.2,7.6-6.9c6.5-1.7,13.2,6.3,6.8,10.5c-0.7-0.3,1.3-2.2-0.3-2c-3.9,1.4-3.7,7.1-1.2,8.4c2.9,1.5,5.4-1.7,8.8-1.2
				c1,0.1,10.7,7.5,11.5,7.9l-7.9-0.5l-118,0.3l-127.7,0.2C1349.4,1919,1355.2,1917.8,1359.7,1917.3z"/>
		</g>
	</g>
	<g id="XMLID_30_" class="st2">
		<g id="XMLID_34_" class="st3">
			<path id="XMLID_46_" class="st4" d="M748.5,1917.3c-7.2-0.9-47.4-0.4-86.8-0.8c-9.9-0.1-19.7-0.2-28.9-0.4
				c-4.6-0.2-8.7-0.5-12.4-0.9c-7.3-0.8-12.5-2.1-13.5-4.1c-1.4-2.7-1.9-7.4,0.8-9.2c7.1-4.8,10.4,7.9,2.3,5.8c3,4.8,11,1.3,13-2.7
				c3-5.6-2.6-16.1-8.3-18.5c-5.8-2.5-13.1,1.4-16,6.3c-3,4.9-2.2,11.3-6.4,15.6c-1.3,1.4-3.6,2.6-4.8,1c-2.1-2.7,2.5-10.4,3-13.9
				c0.9-7.4-5-15.2-10.6-16.3c-5.1-1-12.1,1.6-12.5,6.9c-0.3,3.8,2.7,8.8,6.3,7.5c-3.6-4.9,3.7-6.4,3.8-0.3c0,2.2-1.7,4.2-4.6,5.2
				c-2.7,0.9-9.8,0.1-14.2,1.9c-3.5,1.4-7.3,3.6-6.4,6.3c0.5,1.7,3.6,1.9,2.6,3.8c-0.8-1-1.7-2-2.9-2.1c-4.1,2-9,8.6-11.6,2.8
				c-0.8-1.8,0.4-5.2-0.4-7.2c-1.2-3.3-4.9-6.2-7.6-6.9c-6.5-1.7-13.2,6.3-6.8,10.5c0.7-0.3-1.3-2.2,0.3-2c3.9,1.4,3.7,7.1,1.2,8.4
				c-2.9,1.5-5.4-1.7-8.8-1.2c-1,0.1-10.7,7.5-11.5,7.9l7.9-0.5l118,0.3l131.3,0.2C759.1,1919,753.2,1917.8,748.5,1917.3z"/>
		</g>
	</g>
</g>
<g id="ONDAS">
	<g>
		<g id="layer1_4_">
			<path id="svg_6_4_" class="st5" d="M1780.4,744.4c54.7-23.1,38.6-85.9,29.8-102.8c-54.3-104.3-195.4-99-300.6-60.1
				c-246.1,112.6-215.9,420.7-330.9,693.8C1101,1460,743.8,1478,671.8,1721.7c-1.2,4.1,1.3,8.3,5.4,9.3
				c88.7,20.5,932.4,190.8,887.5-763.5c-1.1-103.5,47.7-281.5,170.2-280.2c33.2-3.8,51.6,24.6,33.4,57.6"/>
		</g>
		<g id="layer1_1_">
			<path id="svg_6_1_" class="st5" d="M279.8,744.9c-18.1-32.9,0.2-61.4,33.4-57.6C435.7,686,484.4,864,483.4,967.5
				c-44.9,954.3,798.8,784,887.5,763.5c4.1-1,6.6-5.2,5.4-9.3C1304.2,1478,947,1460,869.3,1275.3
				c-114.9-273.1-84.7-581.2-330.9-693.8c-105.2-38.9-246.3-44.2-300.6,60.1c-8.8,16.9-24.9,79.7,29.8,102.8"/>
		</g>
		<g id="layer1_2_">
			<path id="svg_6_2_" class="st6" d="M151.7,933.5c-10.2-25.4,6.5-43.8,30.9-37.5c91.6,12.2,109.9,144.4,98.5,218.1
				C149.8,1790,797.6,1759,865.9,1753.9c3.2-0.2,5.5-3,5-6c-28.9-181.6-293.9-232.7-333-372.7C480,1168,534.1,951.5,361.7,844.8
				c-74.6-39-179.5-57.9-230.7,10.6c-8.3,11.1-26.7,54.2,11.7,76.5"/>
		</g>
		<g id="layer1_5_">
			<path id="svg_6_5_" class="st6" d="M1905.3,931.9c38.5-22.3,20-65.4,11.7-76.5c-51.2-68.5-156.1-49.7-230.7-10.6
				c-172.4,106.7-118.2,323.2-176.2,530.3c-39.2,140-304.1,191.2-333,372.7c-0.5,3,1.8,5.8,5,6c68.4,5.1,716.1,36.1,584.8-639.7
				c-11.4-73.7,6.8-205.9,98.5-218.1c24.4-6.3,41,12,30.9,37.5"/>
		</g>
		<g id="layer1_3_">
			<path id="svg_6_3_" class="st7" d="M1911.5,821.9c54.7-23.1,38.6-85.9,29.8-102.8c-54.3-104.3-195.4-99-300.6-60.1
				c-246.1,112.6-215.9,420.7-330.9,693.8c-77.7,184.7-434.9,202.7-506.9,446.4c-1.2,4.1,1.3,8.3,5.4,9.3
				c88.7,20.5,932.4,190.8,887.5-763.5c-1.1-103.5,47.7-281.5,170.2-280.2c33.2-3.8,51.6,24.6,33.4,57.6"/>
		</g>
		<g id="layer1">
			<path id="svg_6" class="st7" d="M148.6,822.3c-18.1-32.9,0.2-61.4,33.4-57.6c122.5-1.3,171.3,176.6,170.2,280.2
				c-44.9,954.3,798.8,784,887.5,763.5c4.1-1,6.6-5.2,5.4-9.3c-72.1-243.7-429.2-261.7-506.9-446.4
				C623.2,1079.7,653.4,771.6,407.3,659c-105.2-38.9-246.3-44.2-300.6,60.1c-8.8,16.9-24.9,79.7,29.8,102.8"/>
		</g>
	</g>
	<g id="XMLID_1_">
		<path class="st8" d="M1056.3,215c0,0,1.6,0.2,4.7,0.7c1.6,0.2,3.5,0.5,5.8,0.9c2.3,0.4,5,0.9,8,1.5c12.1,2.4,29.7,6.6,51.3,15
			c10.7,4.3,22.5,9.6,34.8,16.4c6.2,3.4,12.5,7.2,18.8,11.3c6.4,4.1,12.9,8.8,19.3,13.8c13,10.1,25.9,22.1,38.2,36.2
			c12.2,14.1,23.7,30.4,33.3,48.7c4.8,9.1,9.2,18.8,13.1,28.9c3.8,10.1,7.1,20.7,9.7,31.5c2.6,10.9,4.5,22.2,5.7,33.7
			c0.6,5.8,1,11.6,1.3,17.4c0.2,5.9,0.3,11.8,0.1,17.7c-0.1,5.9-0.6,11.9-1.1,17.9c-0.3,3-0.6,6-1,9c-0.2,1.5-0.4,3-0.6,4.5
			l-0.4,2.4l-0.4,2.1c-0.2,1.4-0.5,2.8-0.7,4.3c-0.3,1.5-0.6,3.1-0.9,4.6c-0.6,3.1-1.3,6.1-2,9.1c-0.7,3-1.4,6-2.3,9
			c-0.9,3-1.7,6-2.6,8.9c-3.6,11.9-8.2,23.5-13.4,35c-1.3,2.9-2.7,5.7-4.1,8.5c-1.5,2.8-2.9,5.6-4.4,8.4c-3,5.6-6.3,11-9.6,16.4
			c-13.6,21.5-30.1,41.4-48.9,59.1c-18.8,17.7-39.9,33.3-62.9,46c-23,12.7-48,22.2-74.1,28c-13.1,2.9-26.4,4.9-39.9,5.9
			c-6.7,0.5-13.5,0.7-20.3,0.7c-3.4,0-6.8-0.1-10.2-0.2c-1.7-0.1-3.4-0.1-5.1-0.2l-5.2-0.4c-3.3-0.3-6.4-0.5-9.9-1
			c-3.5-0.4-6.8-0.9-10.2-1.4c-6.7-1.1-13.5-2.4-20.2-4c-6.7-1.6-13.3-3.5-19.8-5.6c-6.5-2.2-13-4.5-19.4-7.2
			c-25.4-10.7-49-25.6-69.6-43.7c-20.6-18.1-38.3-39.1-52.7-61.9c-14.4-22.8-25.5-47.3-33-72.4c-3.8-12.6-6.7-25.3-8.7-38.1
			c-1-6.4-1.8-12.8-2.3-19.1c-0.3-3.2-0.5-6.4-0.7-9.5c-0.2-3.2-0.3-6.3-0.4-9.5c-0.3-12.6,0.2-25.2,1.6-37.4
			c0.2-1.5,0.4-3.1,0.5-4.6l0.2-1.4l0.1-1.1l0.3-2.1l0.3-2.1c0.1-0.7,0.2-1.4,0.3-2.2c0.3-1.6,0.5-3.1,0.8-4.7l0.4-2.3l0.4-2.2
			c0.3-1.5,0.6-3,0.9-4.5c0.6-3,1.3-5.9,1.9-8.8c2.8-11.7,6.2-23.1,10.3-34c4.1-10.9,8.7-21.5,13.9-31.5c5.2-10,11-19.5,17.2-28.5
			c6.2-8.9,12.8-17.3,19.8-25c13.9-15.5,29-28.6,44.3-39.3c15.4-10.7,31-19.2,46.1-25.9c7.6-3.3,15-6.2,22.2-8.6
			c7.2-2.5,14.3-4.6,21.1-6.3c13.7-3.5,26.4-5.7,37.9-7.1c23-2.7,41.2-2.2,53.5-1.4c3.1,0.2,5.8,0.4,8.1,0.7
			c2.3,0.2,4.3,0.4,5.9,0.6C1054.7,214.8,1056.3,215,1056.3,215L1056.3,215z M1055.8,219c0,0-1.6-0.2-4.7-0.5
			c-1.6-0.2-3.5-0.3-5.8-0.5c-2.3-0.2-5-0.3-8-0.5c-12.1-0.5-30-0.3-52.1,4.3c-5.5,1.2-11.3,2.6-17.2,4.4
			c-5.9,1.8-12.1,3.9-18.3,6.4c-6.2,2.5-12.6,5.4-19,8.7c-6.4,3.3-12.9,7-19.4,11.2C885.4,269,860,292.9,839,323
			c-10.5,15-20,31.6-28,49.5c-4,8.9-7.6,18.2-10.7,27.8c-3.1,9.6-5.7,19.5-7.8,29.7c-8.3,40.7-8.3,85.4,3.4,129.2
			c5.8,21.9,14.4,43.4,26.1,63.7c11.6,20.3,26.3,39.2,43.5,55.9c34.3,33.3,78.6,58.1,128.2,67.2l4.5,0.8c1.5,0.3,3.1,0.5,4.6,0.7
			c3.1,0.5,6.2,0.8,9.3,1.2c6.2,0.6,12.5,1,18.8,1.1c6.3,0.1,12.6,0,18.8-0.5c6.3-0.5,12.5-1.1,18.8-2.1c24.9-3.8,49.1-12.1,71.2-24
			c22.1-11.9,42-27.4,58.6-45.3c16.7-18,30.1-38.3,40.2-59.6c10.1-21.3,17.1-43.3,21.3-65.2c1.1-5.5,1.9-10.9,2.7-16.4
			c0.3-2.7,0.8-5.5,1-8.1c0.1-1.3,0.3-2.6,0.4-4c0.1-1.4,0.3-2.9,0.4-4.3c0.9-10.7,1.3-21.5,1.2-31.9c-0.3-21-2.6-41.4-6.7-60.7
			c-2-9.7-4.5-19.1-7.3-28.2c-2.8-9.1-6-18-9.5-26.5c-3.5-8.5-7.3-16.8-11.3-24.7c-4.1-7.9-8.4-15.5-13-22.6
			c-9.1-14.4-19.2-27.3-29.8-38.5c-5.3-5.6-10.7-10.8-16.1-15.6c-5.4-4.8-10.9-9.1-16.4-13.1c-10.9-7.9-21.7-14.2-31.8-19.2
			c-20.3-9.9-37.6-14.6-49.4-17.2c-3-0.6-5.6-1.2-7.9-1.5c-2.3-0.4-4.2-0.7-5.7-0.9C1057.4,219.2,1055.7,219,1055.8,219L1055.8,219z
			"/>
	</g>
</g>
</svg>
