<?xml version="1.0" encoding="utf-8"?>
<!-- Generator: Adobe Illustrator 19.0.0, SVG Export Plug-In . SVG Version: 6.00 Build 0)  -->
<svg version="1.1" id="Layer_1" xmlns="http://www.w3.org/2000/svg" xmlns:xlink="http://www.w3.org/1999/xlink" x="0px" y="0px"
	 viewBox="0 0 400 400" style="enable-background:new 0 0 400 400;" xml:space="preserve">
<style type="text/css">
	.st0{fill:#F6EC13;}
	.st1{fill:#FFFFFF;}
</style>
<circle id="XMLID_5_" class="st0" cx="200.5" cy="200.5" r="198.5"/>
<g>
	<g>
		<path class="st1" d="M273.5,255.3H161.3c-2.7,0-4.9-2.2-4.9-4.9s2.2-4.9,4.9-4.9h112.2c2.7,0,4.9,2.2,4.9,4.9
			S276.2,255.3,273.5,255.3z"/>
		<path class="st1" d="M134.6,282c-17.4,0-31.6-14.2-31.6-31.6s14.2-31.6,31.6-31.6c17.4,0,31.6,14.2,31.6,31.6S152,282,134.6,282z
			 M134.6,228.6c-12,0-21.8,9.8-21.8,21.8s9.8,21.8,21.8,21.8c12,0,21.8-9.8,21.8-21.8S146.6,228.6,134.6,228.6z"/>
		<path class="st1" d="M300.2,282c-17.4,0-31.6-14.2-31.6-31.6s14.2-31.6,31.6-31.6s31.6,14.2,31.6,31.6S317.6,282,300.2,282z
			 M300.2,228.6c-12,0-21.8,9.8-21.8,21.8s9.8,21.8,21.8,21.8s21.8-9.8,21.8-21.8S312.2,228.6,300.2,228.6z"/>
	</g>
	<path class="st1" d="M273.5,255.3H161.3c-2.7,0-4.9-2.2-4.9-4.9s2.2-4.9,4.9-4.9h112.2c2.7,0,4.9,2.2,4.9,4.9
		S276.2,255.3,273.5,255.3z"/>
	<path class="st1" d="M350.4,255.3h-23.6c-2.7,0-4.9-2.2-4.9-4.9s2.2-4.9,4.9-4.9h23.6c6.1,0,11.2-4.4,12.1-10.4l5.2-33.5
		c0.4-2.3-0.2-4.7-1.7-6.6c-1.4-1.9-3.5-3.1-5.9-3.4l-65.4-8c-0.9-0.1-1.8-0.5-2.6-1.1l-59.1-49.7c-3.9-3.3-8.9-5.1-14-5.1h-92.4
		c-4.6,0-8.8,2.3-11.2,6.1L88,177.2c-0.6,1-1.6,1.7-2.7,2.1l-33.4,10.1c-5,1.5-8.1,6.5-7.3,11.6l4.7,29.9
		c1.3,8.5,8.5,14.6,17.1,14.6h41.5c2.7,0,4.9,2.2,4.9,4.9s-2.2,4.9-4.9,4.9H66.4c-13.4,0-24.7-9.6-26.8-22.9l-4.7-29.9
		c-1.5-9.9,4.5-19.6,14.1-22.5l31.6-9.5l26.7-41.7c4.3-6.7,11.6-10.6,19.5-10.6h92.5c7.4,0,14.6,2.6,20.3,7.4l58,48.7l63.9,7.8
		c5,0.6,9.5,3.2,12.5,7.2c3.1,4,4.3,9,3.5,14l-5.2,33.5C370.5,247.4,361.4,255.3,350.4,255.3z"/>
	<path class="st1" d="M242.3,187.5H129.8c-2.7,0-4.9-2.2-4.9-4.9c0-2.7,2.2-4.9,4.9-4.9h112.5c2.7,0,4.9,2.2,4.9,4.9
		C247.2,185.3,245,187.5,242.3,187.5z"/>
</g>
</svg>
