<?xml version="1.0" encoding="utf-8"?>
<!-- Generator: Adobe Illustrator 19.0.0, SVG Export Plug-In . SVG Version: 6.00 Build 0)  -->
<svg version="1.1" id="Layer_1" xmlns="http://www.w3.org/2000/svg" xmlns:xlink="http://www.w3.org/1999/xlink" x="0px" y="0px"
	 viewBox="0 0 400 400" style="enable-background:new 0 0 400 400;" xml:space="preserve">
<style type="text/css">
	.st0{fill:#F6EC13;}
	.st1{fill:#FFFFFF;}
</style>
<circle id="XMLID_5_" class="st0" cx="200.5" cy="200.5" r="198.5"/>
<g>
	<path class="st1" d="M264.4,180.2c5.4,0,10.7-2.1,14.6-6c2-2,2-5.1,0-7.1c-2-2-5.1-2-7.1,0c-3.2,3.2-8,4-12.1,2.1
		c-2.5-1.2-5.5-0.1-6.7,2.4c-1.2,2.5-0.1,5.5,2.4,6.7C258.3,179.6,261.4,180.2,264.4,180.2L264.4,180.2z"/>
	<path class="st1" d="M366,108.4c-2-2-5.1-2-7.1,0l-55.1,55.1l-9.7-9.7l55.1-55.1c2-2,2-5.1,0-7.1c-2-2-5.1-2-7.1,0L287,146.8
		l-9.7-9.7l55.1-55.1c2-2,2-5.1,0-7.1c-2-2-5.1-2-7.1,0L270.2,130l-9.7-9.7l55.1-55.1c2-2,2-5.1,0-7.1c-2-2-5.1-2-7.1,0l-58.7,58.7
		c0,0-14.2,14.2-14.2,14.2c-11.3,11.3-14.8,28-9.4,42.8l-11.4,10.1c-2.1,1.8-2.3,5-0.4,7.1c1,1.1,2.4,1.7,3.7,1.7
		c1.2,0,2.4-0.4,3.3-1.3l14.1-12.5c1.7-1.5,2.2-3.9,1.2-5.9c-5.6-11.7-3.2-25.7,6-34.9l10.6-10.6l30.1,30.1c0,0,13.3,13.3,13.3,13.3
		l-10.6,10.6c-9.2,9.2-23.2,11.6-34.9,6c-2-1-4.4-0.5-5.9,1.2l-11.5,12.9c-1.8,2.1-1.6,5.2,0.4,7.1c1,0.8,2.1,1.3,3.3,1.3
		c1.4,0,2.8-0.6,3.7-1.7l9.1-10.3c4.5,1.7,9.3,2.5,14,2.5c10.6,0,21-4.1,28.8-11.9l14.2-14.2c0,0,58.7-58.7,58.7-58.7
		C368,113.6,368,110.4,366,108.4L366,108.4z"/>
	<path class="st1" d="M193,255c-2.1-1.8-5.2-1.6-7.1,0.4L113.5,337c0,0,0,0.1-0.1,0.1c-0.4,0.4-0.7,0.8-1.1,1.2
		c-3.5,3.5-8.3,5.5-13.3,5.5c-5,0-9.7-2-13.3-5.5c-7.3-7.3-7.3-19.2,0-26.5c0.4-0.4,0.7-0.7,1.2-1.1c0,0,0.1,0,0.1-0.1l83.1-73.8
		c2.1-1.8,2.3-5,0.4-7.1c-1.8-2.1-5-2.3-7.1-0.4L80.4,303c-0.6,0.5-1.2,1-1.7,1.6c-11.2,11.2-11.2,29.5,0,40.7
		c5.4,5.4,12.7,8.4,20.4,8.4c7.7,0,14.9-3,20.4-8.4c0.5-0.5,1.1-1.1,1.6-1.7l72.4-81.5C195.2,260,195,256.8,193,255L193,255z"/>
	<path class="st1" d="M325.6,303L180.7,174.3c11.3-21.8,7.3-48.3-10.3-65.9c-23.1-23.1-50.8-36.9-74.2-36.9
		c-12.6,0-23.3,4-30.9,11.7c-11.1,11.1-14.4,28.2-9.4,48.2c4.8,19.3,17.1,39.5,34.6,57c10.7,10.7,24.9,16.5,39.9,16.5
		c9.1,0,18-2.2,26-6.3L285,343.6c0.5,0.6,1,1.2,1.6,1.7c5.4,5.4,12.7,8.4,20.4,8.4c7.7,0,14.9-3,20.4-8.4
		c11.2-11.2,11.2-29.5,0-40.7C326.8,304,326.2,303.5,325.6,303L325.6,303z M320.2,338.2c-3.5,3.5-8.3,5.5-13.3,5.5
		c-5,0-9.7-2-13.3-5.5c-0.4-0.4-0.7-0.7-1.1-1.2c0,0,0-0.1-0.1-0.1l-131.4-148c-1-1.1-2.4-1.7-3.7-1.7c-0.9,0-1.8,0.2-2.6,0.7
		c-7.3,4.5-15.7,6.9-24.4,6.9c-12.4,0-24.1-4.8-32.9-13.6c-16.2-16.2-27.6-34.8-32-52.3c-4.1-16.4-1.7-30.2,6.8-38.7
		c5.7-5.7,14-8.7,23.8-8.7c20.8,0,45.9,12.7,67.1,34c15.3,15.3,18.1,38.8,6.7,57.3c-1.3,2.1-0.9,4.8,0.9,6.4l148,131.4
		c0,0,0.1,0,0.1,0.1c0.4,0.4,0.8,0.7,1.2,1.1C327.6,319,327.6,330.9,320.2,338.2z"/>
	<path class="st1" d="M149.2,122.6c-2,2-2,5.1,0,7.1c8.7,8.7,10.3,22.1,3.8,32.6c-1.5,2.4-0.7,5.4,1.6,6.9c0.8,0.5,1.7,0.7,2.6,0.7
		c1.7,0,3.3-0.8,4.3-2.4c8.9-14.4,6.7-32.9-5.3-44.9C154.3,120.6,151.1,120.6,149.2,122.6L149.2,122.6z"/>
	<path class="st1" d="M130.4,174.9c-7.1,0-13.7-2.7-18.7-7.7c-13.7-13.7-23.2-29-26.7-43c-2.2-8.9-1.7-16.4,1.5-19.6
		c2-2,2-5.1,0-7.1c-2-2-5.1-2-7.1,0c-5.9,5.9-7.4,16.3-4.1,29.1c4,15.8,14.4,32.7,29.4,47.7c6.9,6.9,16,10.7,25.8,10.7
		c2.8,0,5-2.2,5-5C135.4,177.1,133.2,174.9,130.4,174.9z"/>
</g>
</svg>
